<svg width="40" height="40" viewBox="0 0 40 40" fill="none" xmlns="http://www.w3.org/2000/svg">
<path d="M9.76093 17.2719C9.71656 16.7839 9.51909 16.4046 9.16854 16.134C8.82243 15.859 8.32766 15.7215 7.68425 15.7215C7.25826 15.7215 6.90327 15.7769 6.61928 15.8878C6.33529 15.9987 6.1223 16.1518 5.98031 16.347C5.83831 16.5377 5.76509 16.7573 5.76066 17.0057C5.75178 17.2098 5.79172 17.3894 5.88047 17.5447C5.97365 17.6999 6.10677 17.8375 6.27983 17.9572C6.45732 18.0726 6.67031 18.1746 6.91881 18.2633C7.1673 18.352 7.44685 18.4297 7.75746 18.4962L8.92893 18.7624C9.6034 18.9087 10.198 19.1039 10.7127 19.3479C11.2319 19.5919 11.6668 19.8824 12.0173 20.2196C12.3723 20.5567 12.6408 20.9449 12.8227 21.384C13.0046 21.8232 13.0978 22.3156 13.1023 22.8612C13.0978 23.7218 12.8804 24.4604 12.45 25.077C12.0195 25.6936 11.4005 26.166 10.5929 26.4943C9.78977 26.8226 8.82021 26.9867 7.68425 26.9867C6.54385 26.9867 5.54988 26.8159 4.70235 26.4743C3.85481 26.1328 3.19587 25.6138 2.72551 24.9173C2.25515 24.2208 2.01331 23.3403 2 22.2757H5.15496C5.18158 22.7148 5.29917 23.0808 5.50773 23.3736C5.71628 23.6663 6.00249 23.8881 6.36636 24.039C6.73466 24.1898 7.16064 24.2652 7.64431 24.2652C8.08805 24.2652 8.46522 24.2053 8.77584 24.0856C9.09089 23.9658 9.33273 23.7994 9.50134 23.5865C9.66996 23.3736 9.75649 23.1296 9.76093 22.8546C9.75649 22.5973 9.67662 22.3777 9.52131 22.1958C9.36601 22.0095 9.12639 21.8498 8.80246 21.7167C8.48297 21.5792 8.07474 21.4528 7.57775 21.3375L6.15336 21.0048C4.97303 20.7342 4.0434 20.2972 3.36449 19.6939C2.68557 19.0862 2.34833 18.2655 2.35277 17.2319C2.34833 16.3891 2.57464 15.6505 3.03168 15.0162C3.48873 14.3818 4.12105 13.8872 4.92865 13.5323C5.73625 13.1774 6.657 13 7.69091 13C8.74699 13 9.66331 13.1797 10.4398 13.539C11.2208 13.8939 11.8265 14.3929 12.2569 15.0361C12.6874 15.6793 12.907 16.4246 12.9159 17.2719H9.76093Z" fill="white"/>
<path d="M26.8517 18.1236H23.5237C23.4794 17.782 23.3884 17.4737 23.2508 17.1987C23.1133 16.9236 22.9313 16.6885 22.705 16.4933C22.4787 16.2982 22.2103 16.1496 21.8997 16.0475C21.5935 15.9411 21.254 15.8878 20.8813 15.8878C20.2201 15.8878 19.6499 16.0497 19.1707 16.3736C18.6959 16.6974 18.3298 17.1654 18.0724 17.7776C17.8195 18.3897 17.693 19.1305 17.693 20C17.693 20.9049 17.8217 21.6635 18.0791 22.2757C18.3409 22.8834 18.707 23.3425 19.1773 23.653C19.6521 23.9591 20.2135 24.1122 20.8613 24.1122C21.2252 24.1122 21.5558 24.0656 21.8531 23.9724C22.1548 23.8793 22.4188 23.744 22.6451 23.5665C22.8759 23.3847 23.0645 23.1651 23.2109 22.9078C23.3618 22.6461 23.466 22.3511 23.5237 22.0228L26.8517 22.0428C26.7941 22.6461 26.6188 23.2405 26.3259 23.826C26.0375 24.4116 25.6403 24.9461 25.1345 25.4297C24.6286 25.9087 24.0118 26.2902 23.2841 26.5741C22.5608 26.858 21.731 27 20.7948 27C19.5612 27 18.4563 26.7294 17.4801 26.1882C16.5083 25.6426 15.7406 24.8485 15.1771 23.8061C14.6135 22.7636 14.3318 21.4949 14.3318 20C14.3318 18.5006 14.618 17.2297 15.1904 16.1873C15.7628 15.1448 16.5371 14.353 17.5133 13.8118C18.4896 13.2706 19.5834 13 20.7948 13C21.6201 13 22.3833 13.1153 23.0844 13.346C23.7855 13.5722 24.4023 13.9049 24.9348 14.3441C25.4673 14.7788 25.8999 15.3134 26.2327 15.9477C26.5655 16.5821 26.7719 17.3074 26.8517 18.1236Z" fill="white"/>
<path d="M28.6949 26.8137V13.1863H38V15.8612H31.9896V18.6559H37.4076V21.3375H31.9896V26.8137H28.6949Z" fill="white"/>
</svg>
